<svg width="16" height="16" viewBox="0 0 16 16" fill="none" xmlns="http://www.w3.org/2000/svg">
<path fill-rule="evenodd" clip-rule="evenodd" d="M6.1895 12.5974C5.96021 12.6604 5.77455 12.6537 5.74211 12.5704C5.74147 12.5632 5.74147 12.5561 5.74211 12.549L5.58552 11.3103C5.56539 11.2607 5.66829 11.1718 5.81593 11.1132C5.96357 11.0547 6.09779 11.0468 6.11792 11.0963L6.85388 12.1098C6.85715 12.1147 6.85978 12.12 6.86171 12.1256C6.89526 12.2078 6.7644 12.3418 6.55524 12.4555C6.49842 12.4865 6.43977 12.5139 6.37964 12.5377C6.31741 12.5611 6.25393 12.581 6.1895 12.5974Z" fill="#EFAB00"/>
<path fill-rule="evenodd" clip-rule="evenodd" d="M12.6455 6.73744C12.895 7.36691 11.4253 8.54928 9.36281 9.37919C7.30034 10.2091 5.42577 10.3712 5.17635 9.74178L5.14951 9.61453L4.68311 7.42547C4.88219 7.92544 6.00403 7.9671 7.39206 7.58649C8.1461 7.37742 8.87463 7.08433 9.56414 6.71267C10.8303 6.02577 11.6154 5.21726 11.4175 4.71729L12.5773 6.63159L12.6455 6.73744Z" fill="#676767"/>
<path fill-rule="evenodd" clip-rule="evenodd" d="M7.39184 7.58658C6.00381 7.96719 4.88198 7.9244 4.68289 7.42555C4.43347 6.79609 5.73873 5.68016 7.59764 4.93133C9.45655 4.1825 11.1678 4.08791 11.4172 4.71737C11.6152 5.21735 10.83 6.02586 9.56393 6.71276C8.87442 7.08442 8.14589 7.37751 7.39184 7.58658Z" fill="#7385A1"/>
<path fill-rule="evenodd" clip-rule="evenodd" d="M7.35854 4.40645L4.23128 6.63493L1 8.60216L1.10402 8.86454L4.89677 8.31164L8.68953 7.75762L11.8168 5.52801L15 3.25899L14.8859 3L11.1513 3.85243L7.35854 4.40645Z" fill="#E2E2E2"/>
<path fill-rule="evenodd" clip-rule="evenodd" d="M10.0293 6.80271L11.8167 5.52801L14.9998 3.25899L14.8858 3L12.1131 3.63285L9.91748 6.54484L10.0293 6.80271Z" fill="#E2E2E2"/>
<path fill-rule="evenodd" clip-rule="evenodd" d="M7.25452 4.14305L4.12726 6.37266L1 8.60226L4.79276 8.04824L8.58439 7.49534L11.7117 5.26574L14.8389 3.03613L11.0473 3.59016L7.25452 4.14305Z" fill="#676767"/>
<path fill-rule="evenodd" clip-rule="evenodd" d="M9.91769 6.54372L11.7073 5.26564L14.8815 3L11.0429 3.58893L7.30381 4.13507C7.03984 4.62266 6.96826 5.09898 7.12932 5.51112C7.44473 6.29261 8.53413 6.65069 9.91769 6.54372Z" fill="#676767"/>
<path fill-rule="evenodd" clip-rule="evenodd" d="M4.79276 8.04826L8.58439 7.49536L8.68953 7.75773L4.89677 8.31176L1.10402 8.86465L1 8.60228L4.79276 8.04826Z" fill="#E2E2E2"/>
<path fill-rule="evenodd" clip-rule="evenodd" d="M10.4758 6.48413L11.818 5.5281L11.884 5.48193L12.5797 6.62714L12.6479 6.73975C12.8414 7.22733 12.0025 8.0471 10.657 8.77679C9.91412 8.80588 9.17306 8.6837 8.4782 8.41758C8.15192 8.29031 7.8415 8.12516 7.55322 7.92549L8.69071 7.75996L10.4758 6.48413Z" fill="#676767"/>
<path d="M5.9637 11.1907C6.08023 11.0767 6.08293 10.8892 5.96973 10.7719C5.85653 10.6546 5.6703 10.6518 5.55377 10.7658C5.43724 10.8798 5.43454 11.0673 5.54774 11.1846C5.66094 11.3019 5.84717 11.3046 5.9637 11.1907Z" fill="#EFAB00"/>
<path fill-rule="evenodd" clip-rule="evenodd" d="M7.83029 5.82861C7.67035 5.89392 7.51153 5.87703 7.47797 5.79257C7.44442 5.70812 7.54844 5.5865 7.70838 5.52232C7.86832 5.45813 8.02715 5.4739 8.0607 5.55835C8.09425 5.64281 7.99359 5.76442 7.83029 5.82861Z" fill="#686969"/>
<path fill-rule="evenodd" clip-rule="evenodd" d="M7.81369 5.78139C7.65375 5.84557 7.49493 5.82981 7.46137 5.74535C7.42782 5.6609 7.53184 5.53928 7.69178 5.47397C7.85172 5.40866 8.01055 5.42555 8.0441 5.51001C8.07765 5.59446 7.97476 5.7172 7.81369 5.78139Z" fill="#666666"/>
<path fill-rule="evenodd" clip-rule="evenodd" d="M7.78235 5.68677C7.7982 5.67427 7.80865 5.65611 7.81155 5.63605C7.81444 5.61599 7.80955 5.59559 7.79789 5.57907C7.78623 5.56255 7.7687 5.55118 7.74893 5.54733C7.72917 5.54348 7.70869 5.54745 7.69176 5.5584L4.46271 7.89273C4.44777 7.90322 4.43706 7.91877 4.43255 7.93655C4.42803 7.95432 4.43 7.97313 4.43811 7.98957L5.60915 10.8318C5.61238 10.8422 5.61774 10.8518 5.62487 10.8601C5.63201 10.8683 5.64076 10.875 5.65059 10.8796C5.66042 10.8843 5.6711 10.8868 5.68196 10.8871C5.69281 10.8874 5.70361 10.8854 5.71365 10.8812C5.72369 10.877 5.73277 10.8708 5.7403 10.863C5.74783 10.8551 5.75365 10.8457 5.7574 10.8354C5.76114 10.8252 5.76272 10.8142 5.76204 10.8033C5.76135 10.7924 5.75842 10.7818 5.75343 10.7721L4.60364 7.97943L7.78235 5.68677Z" fill="#EF8200"/>
</svg>
